<svg width="182" height="221" viewBox="0 0 182 221" fill="none" xmlns="http://www.w3.org/2000/svg">
<path d="M77.4101 1.17845C69.7 2.24593 57.6632 6.3972 49.6757 10.7857C47.8453 11.7939 43.4632 14.6404 39.9687 17.0719C32.2031 22.5278 22.1632 32.9653 16.5609 41.4458C9.46088 52.1798 3.52573 67.243 1.36244 79.6968C-0.135212 88.5331 -0.301618 103.181 1.02963 112.61C4.96791 140.602 19.2789 164.264 41.6328 179.742C58.0515 191.188 79.1851 196.881 98.1 195.102C130.494 192.018 158.284 171.914 172.484 141.373C179.251 126.784 181.691 115.042 181.691 97.1914C181.691 83.9667 180.97 78.6293 177.753 67.9546C168.212 36.2863 144.305 12.0311 114.297 3.55061C110.802 2.54243 105.81 1.47498 103.203 1.11916C97.6562 0.407501 82.957 0.466812 77.4101 1.17845ZM105.81 6.15997C133.212 11.1415 157.784 31.0676 169.655 58.1102C175.59 71.6908 178.807 88.4145 177.531 99.3264C177.198 102.054 176.366 106.739 175.645 109.823C174.259 115.694 171.041 124.471 170.32 124.471C170.098 124.471 170.487 122.336 171.152 119.786C173.149 112.433 173.87 104.842 173.482 93.989C173.149 84.5004 172.705 81.4759 170.376 72.6989C162.777 44.1145 139.369 19.6813 112.522 12.3869C103.314 9.83682 99.5421 9.42169 85.7304 9.42169C71.5859 9.42169 66.7601 10.0147 58.2734 12.6241C52.7265 14.3439 53.0039 13.6323 58.8281 11.2601C70.532 6.3972 80.4054 4.55878 92.664 4.97391C97.1015 5.09251 102.981 5.62625 105.81 6.15997ZM104.312 12.7427C110.414 13.8102 121.119 17.487 126.777 20.5115C138.259 26.6791 150.407 38.0062 157.452 49.0367C161.445 55.3229 165.716 64.4557 167.824 71.3349C169.71 77.5619 171.43 86.8133 171.43 90.668V93.7518L169.155 91.6169C166.992 89.6599 165.051 88.4738 161.944 87.1691C160.613 86.6354 160.447 86.2795 160.225 82.1876C159.892 77.0281 158.505 73.5292 155.455 70.2082C152.459 66.9465 148.577 65.1673 144.416 65.1673H140.922V61.4312C140.866 56.509 140.145 53.3066 137.816 48.0878C134.044 39.726 126.666 33.1432 118.235 30.6525C104.202 26.4419 88.7812 33.1432 81.8476 46.4273C80.7382 48.5623 79.6289 50.3414 79.4624 50.3414C79.2406 50.3414 78.0757 50.0448 76.8554 49.7483C71.1976 48.2657 64.8187 52.1205 62.9882 58.0509C62.3226 60.2451 61.7679 61.0161 60.6585 61.3126C59.8265 61.4905 58.4953 62.2021 57.6632 62.8545C56.1656 63.9813 56.0546 63.9813 53.7249 62.9731C52.0054 62.2021 49.8421 61.9056 46.0148 61.9056C41.0781 61.9056 40.4679 62.0242 36.9734 63.922C29.3187 68.0732 24.9921 75.5455 24.9921 84.5597C24.9921 87.94 24.8812 88.4738 23.8828 88.711C20.9429 89.5412 15.0632 93.0995 12.8999 95.353C11.5687 96.7763 10.3484 97.7252 10.182 97.5473C10.0156 97.3694 10.1265 94.1076 10.5148 90.2529C13.1773 60.423 29.9289 34.0921 54.7789 20.7487C70.3101 12.4462 86.8398 9.77751 104.312 12.7427ZM61.8789 14.9963C54.446 18.0801 50.3968 20.2743 45.0718 24.0697C28.3757 36.1084 16.7273 53.4252 11.2359 74.3595C8.73979 83.7295 8.12963 89.8971 8.51791 101.639C8.79526 110.357 9.0726 112.729 10.5703 119.134C13.8429 132.892 19.0015 143.804 27.2109 154.42C36.2523 166.043 46.4585 175.888 55.389 181.64C57.2749 182.886 58.8281 183.953 58.8281 184.072C58.8281 184.961 47.9562 179.031 42.5203 175.176C23.7718 161.951 10.5703 140.78 5.74448 116.169C4.46869 109.705 4.24682 107.332 4.24682 97.7845C4.24682 88.118 4.41323 85.9237 5.74448 79.2224C8.62885 64.6929 13.1218 54.1368 21.7195 41.7423C31.7039 27.3315 45.1828 17.9021 61.8789 13.5137C68.3132 11.8531 68.3132 12.2683 61.8789 14.9963ZM115.295 34.5665C125.502 37.4724 133.378 45.4785 135.874 55.4415C136.484 57.9323 136.817 64.9894 136.373 65.5232C136.207 65.6418 134.987 65.2267 133.655 64.5743C129.162 62.4394 121.508 63.3289 118.457 66.472C117.348 67.5395 117.348 67.5395 119.289 67.1244C123.172 66.1755 129.384 66.6499 131.936 68.0732C135.319 69.9117 139.091 74.1222 140.7 77.7991L142.087 80.8829L141.865 77.0281C141.698 74.8932 141.199 72.2838 140.755 71.2756L139.868 69.4372L141.809 69.0814C144.638 68.4884 149.409 70.1489 151.96 72.6396C155.233 75.7827 156.619 79.4003 156.342 84.1446C156.176 86.2795 155.954 88.3552 155.843 88.8296C155.677 89.4226 156.287 89.8378 157.729 90.1343C162.499 91.2611 167.103 94.6414 170.043 99.2671C172.484 103.003 172.373 104.664 169.488 105.257C167.048 105.731 160.613 104.604 156.619 103.003C150.851 100.75 144.805 96.3019 144.805 94.4042C144.805 93.989 144.416 93.6332 143.973 93.6332C143.529 93.6332 143.141 94.1076 143.141 94.7007C143.141 95.353 141.976 96.4798 140.256 97.6066C134.377 101.402 129.218 103.122 123.449 103.122H119.566L114.962 96.0647C110.026 88.5331 109.804 88.2959 104.479 88.2959C103.092 88.2959 102.427 87.8807 101.705 86.6354C101.206 85.7458 100.707 84.9155 100.652 84.7969C100.541 84.6783 97.3234 85.2121 93.4406 85.9237C86.507 87.2284 86.3406 87.2284 78.2976 86.2795C73.8601 85.7458 69.3117 85.1528 68.2578 84.9748L66.3164 84.6783L61.8789 92.1506C59.4382 96.2426 57.1085 99.5636 56.7203 99.5636C56.2765 99.5636 54.5015 99.1485 52.782 98.674C45.7929 96.717 37.5835 92.2692 37.0289 90.075C36.696 88.5924 35.5312 88.5331 35.5312 89.9564C35.5312 92.0913 28.0429 98.6147 21.9968 101.699C18.114 103.715 12.5117 105.375 11.9015 104.723C11.2914 104.13 13.8429 100.335 16.4499 97.8438C19.5007 94.9972 21.8859 93.7518 26.2679 92.803C29.4851 92.0913 29.707 91.9134 29.4296 90.6087C29.2632 89.8378 29.1523 86.9319 29.1523 84.1446C29.2078 79.8747 29.4296 78.6293 30.6499 76.1386C33.4234 70.4454 38.5265 66.7092 44.2953 65.9383C47.0687 65.5825 53.2812 66.7092 53.2812 67.4802C53.2812 67.7767 52.8929 68.9628 52.4492 70.0896C52.0054 71.2756 51.6171 73.6478 51.6726 75.3676V78.5107L52.5046 76.1979C53.8914 72.1652 57.4414 67.8953 61.2132 65.7011C64.264 63.922 65.096 63.6847 69.0898 63.6847C71.5304 63.6847 74.2484 63.922 75.0804 64.1592C76.2453 64.515 76.5781 64.4557 76.3007 63.922C75.746 63.0324 70.4765 60.423 69.0898 60.423C68.4796 60.423 67.6476 60.1858 67.2593 59.8893C65.096 58.466 70.6429 53.3066 74.3039 53.3066C76.2453 53.3066 79.6843 54.6706 81.071 56.0345C81.9031 56.8055 82.0695 56.5683 83.1234 53.4252C87.8937 39.5481 102.482 30.949 115.295 34.5665ZM95.6039 92.803C91.2773 100.631 90.3898 100.809 89.1695 94.1669C88.6148 91.4983 88.3929 89.1261 88.5593 88.9482C88.8367 88.5924 98.3773 86.6354 98.6546 86.8726C98.7656 86.9319 97.3789 89.6005 95.6039 92.803ZM74.2484 89.304C77.0773 93.1588 84.3437 104.486 84.3437 105.02C84.3437 105.316 83.5117 105.494 82.5687 105.375C80.9601 105.197 80.1835 104.367 75.3023 97.1914C68.0914 86.5167 68.3687 87.1098 70.6984 87.1098C72.2515 87.1098 72.9171 87.5249 74.2484 89.304ZM78.8523 88.4145C79.9617 89.4226 82.2359 92.625 86.7289 99.6822L90.4453 105.494H88.0046C85.8414 105.494 85.4531 105.257 84.4546 103.537C83.8445 102.529 81.3484 98.4961 78.9078 94.6414L74.4148 87.7028H76.1898C77.1882 87.7028 78.4085 88.0586 78.8523 88.4145ZM86.4515 89.1854C86.6734 89.4226 87.1171 91.4983 88.2265 97.3101C88.7257 100.038 89.0585 100.75 89.8906 100.75C90.5007 100.75 91.5546 101.639 92.2757 102.647C94.4945 105.85 94.5499 106.087 93.0523 106.087C91.9429 106.087 90.7781 104.723 86.6179 98.081C80.0726 87.7621 80.1281 87.9993 83.5671 88.5924C85.0648 88.8296 86.396 89.0668 86.4515 89.1854ZM73.1945 97.1914L78.7968 105.494V110.416V115.338L68.4242 116.109C62.7109 116.465 57.8296 116.88 57.4968 116.94C57.1085 116.999 56.8312 114.983 56.7203 111.246L56.5539 105.375L61.657 97.1321C64.4304 92.625 66.9265 88.8889 67.1484 88.8889C67.3703 88.8889 70.0882 92.625 73.1945 97.1914ZM110.303 97.8438C117.237 107.629 117.126 107.392 114.463 107.155C112.633 106.977 112.134 106.561 110.303 103.774C109.138 102.054 108.362 100.335 108.528 100.038C108.694 99.7415 108.584 99.2078 108.306 98.7926C107.585 97.9031 103.758 90.668 103.758 90.2529C103.758 89.0668 105.921 91.4983 110.303 97.8438ZM114.852 98.5554C117.736 102.825 120.232 106.561 120.343 106.858C120.454 107.155 119.844 107.273 118.956 107.155C117.68 107.036 116.516 105.672 112.244 99.2671C109.416 94.9972 107.141 91.3797 107.086 91.0831C107.086 90.8459 107.641 90.668 108.362 90.668C109.305 90.7273 110.802 92.5064 114.852 98.5554ZM40.9671 94.8786C42.6867 95.8868 46.8468 97.7252 50.2859 98.9113C56.221 100.987 56.4429 101.165 55.6664 102.232C54.8898 103.418 54.7789 103.359 49.5093 101.461C43.0749 99.0299 37.1953 95.5309 37.1953 94.0483C37.1953 92.6843 37.4171 92.7437 40.9671 94.8786ZM35.5312 94.4635C35.5312 95.6495 29.2632 101.402 25.214 103.893C21.7749 106.087 14.8968 108.459 12.0679 108.459C10.9031 108.459 10.5148 108.222 10.6812 107.451C10.7921 106.739 11.957 106.265 14.7304 105.672C19.6671 104.545 27.2109 100.453 31.1492 96.5984C34.1999 93.6332 35.5312 92.9809 35.5312 94.4635ZM48.5664 102.232C51.007 103.122 53.3367 103.952 53.7804 104.071C54.3906 104.249 54.3351 104.604 53.614 105.791C52.4492 107.629 52.5046 107.866 53.8359 107.866C54.8343 107.866 54.9453 108.281 54.9453 112.61C54.9453 115.22 54.7789 117.355 54.6124 117.355C53.7804 117.355 40.0796 119.193 38.7484 119.49L37.1953 119.846V108.163V96.4798L40.6898 98.5554C42.5757 99.6822 46.1257 101.343 48.5664 102.232ZM35.4203 109.467C35.3093 115.101 35.032 119.846 34.8656 120.023C34.6992 120.201 30.9828 121.15 26.6007 122.158C22.2187 123.167 18.3914 124.175 18.1695 124.412C17.6703 124.946 20.6656 133.545 21.9414 135.383C22.6624 136.391 23.1617 136.451 33.4234 135.739C46.9578 134.79 78.1867 135.265 88.7812 136.569C110.802 139.238 129.162 143.271 145.304 148.904L150.573 150.743L152.404 148.43C154.401 145.88 155.677 143.567 155.288 143.211C154.789 142.618 138.315 138.111 129.551 136.095C100.152 129.453 70.6429 127.496 34.1445 129.868C29.2632 130.164 24.271 130.58 23.0507 130.757C21.8304 130.995 20.9429 130.995 21.1648 130.757C21.6085 130.224 31.6484 128.8 40.5234 127.911C50.7851 126.962 83.1234 126.962 93.7734 127.97C111.024 129.512 132.491 133.723 148.687 138.704C151.905 139.653 155.066 140.602 155.677 140.839C156.897 141.195 158.284 139.594 159.615 136.273L160.225 134.731L151.572 132.299C136.651 128.089 121.009 125.124 101.816 122.989L94.6054 122.158L102.648 122.396C112.966 122.751 123.283 123.997 135.098 126.31C143.252 127.852 157.895 131.469 160.447 132.477C161.057 132.714 161.612 132.003 162.499 129.868C164.496 124.827 165.938 125.717 147.855 121.269L145.082 120.616L144.916 110.653C144.86 105.197 144.916 100.75 145.082 100.75C145.248 100.75 146.58 101.699 148.077 102.825C153.569 107.036 160.946 109.586 167.713 109.645C171.541 109.645 171.485 109.467 169.433 118.126C164.219 140.068 152.903 157.385 135.375 170.017C112.134 186.8 80.6273 188.935 55.4445 175.473C37.1398 165.628 23.5499 149.972 15.8953 129.809C14.3976 125.895 11.1249 112.966 11.1249 111.009C11.1249 110.12 11.957 109.705 15.7289 108.934C21.4421 107.629 26.989 104.664 31.6484 100.453C34.5882 97.7252 35.3093 97.3101 35.4757 98.1996C35.5867 98.7926 35.5312 103.833 35.4203 109.467ZM143.141 98.081C143.141 99.9787 135.652 104.189 129.273 105.85C126.389 106.621 121.508 106.977 121.508 106.443C121.508 106.324 121.397 105.791 121.175 105.316C120.953 104.664 121.73 104.427 124.947 104.13C129.884 103.774 135.597 101.817 139.424 99.2078C142.752 97.0135 143.141 96.8949 143.141 98.081ZM147.19 98.7333C149.63 100.928 155.732 104.071 159.615 105.138C161.501 105.672 164.884 106.087 167.214 106.087C171.041 106.087 171.43 106.206 171.43 107.273C171.43 108.341 171.041 108.459 167.436 108.459C165.217 108.459 161.778 108.044 159.781 107.51C154.234 106.146 144.805 100.157 144.805 98.0217C144.805 96.8356 145.248 96.9542 147.19 98.7333ZM101.151 98.9706C101.927 98.9706 102.094 99.5043 102.094 102.114C102.094 103.893 101.983 105.435 101.816 105.553C101.705 105.731 100.707 105.731 99.5976 105.613L97.6562 105.375V101.817C97.6562 98.3775 97.7117 98.2589 98.932 98.6147C99.5976 98.7926 100.596 98.9706 101.151 98.9706ZM109.249 103.478C110.192 104.96 110.969 106.265 110.969 106.443C110.969 106.561 110.248 106.68 109.305 106.68C107.53 106.68 106.531 105.375 106.531 102.944C106.531 101.758 106.919 100.75 107.419 100.75C107.474 100.75 108.306 101.936 109.249 103.478ZM143.141 110.594C143.141 119.49 143.03 120.439 142.198 120.083C141.366 119.727 126.278 117.592 122.062 117.236L120.121 117.058L119.955 113.026C119.788 109.112 119.788 109.052 121.23 109.052C122.007 109.052 122.617 108.815 122.617 108.518C122.617 108.222 124.059 107.807 125.834 107.57C130.105 107.036 136.762 104.604 139.812 102.529C141.199 101.58 142.475 100.809 142.752 100.809C142.974 100.75 143.141 105.197 143.141 110.594ZM175.59 119.312C172.04 135.62 164.496 150.209 153.125 162.485C144.805 171.559 138.759 175.71 127.887 179.92C123.061 181.759 115.351 183.834 113.631 183.716C113.243 183.716 115.295 182.826 118.18 181.759C130.882 177.014 143.751 167.704 153.014 156.495C160.78 147.066 171.485 128.504 174.758 118.659C175.479 116.643 176.144 115.042 176.255 115.161C176.366 115.279 176.089 117.177 175.59 119.312ZM63.8757 181.64C73.6382 185.376 80.6828 186.384 97.1015 186.444C109.748 186.444 111.856 186.325 117.181 185.08C120.454 184.368 123.782 183.479 124.559 183.182C127.277 182.055 126.777 182.648 123.782 184.131C120.343 185.791 111.191 188.697 106.254 189.706C101.206 190.714 86.8953 191.129 82.4023 190.358C76.8554 189.468 67.0375 186.147 62.1562 183.479C58.2179 181.344 48.8437 175.176 48.8437 174.702C48.8437 174.524 50.9515 175.591 53.5031 176.955C56.0546 178.319 60.714 180.454 63.8757 181.64Z" fill="#FEFFFE"/>
<path d="M66.0391 102.469L63.5984 102.825L63.543 106.799V110.831H66.0391C70.8648 110.831 71.0312 110.653 71.0312 106.028C71.0312 101.461 71.4195 101.699 66.0391 102.469Z" fill="#FEFFFE"/>
<path d="M28.4311 137.34C22.6624 137.577 22.7733 137.399 25.2694 141.669L26.7116 144.16L36.8069 143.745C48.3444 143.271 66.3163 144.101 81.7366 145.88C100.818 148.015 119.677 152.344 138.98 158.927L142.253 160.054L145.47 156.673C147.245 154.776 148.687 153.115 148.687 152.878C148.687 152.522 139.923 149.557 132.047 147.363C116.016 142.855 90.3897 138.704 71.5858 137.518C62.1561 136.984 41.0225 136.866 28.4311 137.34Z" fill="#FEFFFE"/>
<path d="M27.7656 145.524C27.7656 145.761 28.9305 147.481 30.3172 149.379L32.9242 152.759L44.018 153.174C59.8266 153.767 67.9805 154.479 80.5719 156.495C95.5484 158.927 116.016 163.968 126.167 167.704C127.998 168.415 129.828 168.949 130.327 168.949C131.659 168.89 139.979 162.366 139.48 161.833C139.202 161.536 136.373 160.528 133.156 159.52C111.302 152.818 90.5562 148.904 64.0977 146.414C55.2781 145.643 27.7656 144.931 27.7656 145.524Z" fill="#FEFFFE"/>
<path d="M38.3047 158.452C41.7992 162.129 42.132 162.307 45.2383 162.663C55.9438 163.908 67.3703 165.687 74.6367 167.229C83.7336 169.186 91.7211 171.321 91.3883 171.677C91.2773 171.855 86.6734 171.025 81.2375 169.898C71.5305 167.882 53.1148 165.391 48.2336 165.391H45.793L51.1734 168.89C57.7188 173.219 62.5445 175.473 70.3656 177.785C87.6719 183.004 106.531 181.462 122.728 173.575L127.776 171.084L125.945 170.254C122.895 168.949 108.084 164.916 98.2109 162.722C81.6258 159.045 63.9312 156.495 49.1211 155.606C45.793 155.428 41.1336 155.131 38.8594 154.953L34.6992 154.657L38.3047 158.452Z" fill="#FEFFFE"/>
</svg>
